#N canvas 532 343 591 377 10;
#X obj 155 118 comport 0 19200;
#X msg 81 85 devices;
#X msg 155 54 open 35;
#X msg 167 76 close;
#X floatatom 155 144 5 0 0 0 - - -;
#X obj 236 142 select 255;
#X obj 155 167 mapping/tolist;
#X obj 155 189 pddp/print;
#X obj 155 225 unpack f f f f f f f f f;
#X floatatom 128 277 5 0 0 0 - - -;
#X floatatom 164 277 5 0 0 0 - - -;
#X floatatom 200 276 5 0 0 0 - - -;
#X floatatom 236 276 5 0 0 0 - - -;
#X floatatom 273 277 5 0 0 0 - - -;
#X floatatom 309 277 5 0 0 0 - - -;
#X floatatom 345 276 5 0 0 0 - - -;
#X floatatom 381 276 5 0 0 0 - - -;
#X connect 0 0 4 0;
#X connect 0 0 5 0;
#X connect 1 0 0 0;
#X connect 2 0 0 0;
#X connect 3 0 0 0;
#X connect 4 0 6 0;
#X connect 5 0 6 1;
#X connect 6 0 7 0;
#X connect 6 0 8 0;
#X connect 8 0 9 0;
#X connect 8 1 10 0;
#X connect 8 2 11 0;
#X connect 8 3 12 0;
#X connect 8 4 13 0;
#X connect 8 5 14 0;
#X connect 8 6 15 0;
#X connect 8 7 16 0;
